HIERARCHY
ROOT Hips
{
	OFFSET -0.001795 -0.223333 0.028219
	CHANNELS 6 Xposition Yposition Zposition Zrotation Yrotation Xrotation 
	JOINT LeftUpLeg
	{
		OFFSET 0.069520 -0.091406 -0.006815
		CHANNELS 3 Zrotation Yrotation Xrotation
		JOINT LeftLeg
		{
			OFFSET 0.034277 -0.375199 -0.004496
			CHANNELS 3 Zrotation Yrotation Xrotation
			JOINT LeftFoot
			{
				OFFSET -0.013596 -0.397961 -0.043693
				CHANNELS 3 Zrotation Yrotation Xrotation
				JOINT LeftToe
				{
					OFFSET 0.026358 -0.055791 0.119288
					CHANNELS 3 Zrotation Yrotation Xrotation
					End Site
					{
						OFFSET 0.000000 0.000000 0.000000
					}
				}
			}
		}
	}
	JOINT RightUpLeg
	{
		OFFSET -0.067670 -0.090522 -0.004320
		CHANNELS 3 Zrotation Yrotation Xrotation
		JOINT RightLeg
		{
			OFFSET -0.038290 -0.382569 -0.008850
			CHANNELS 3 Zrotation Yrotation Xrotation
			JOINT RightFoot
			{
				OFFSET 0.015774 -0.398415 -0.042312
				CHANNELS 3 Zrotation Yrotation Xrotation
				JOINT RightToe
				{
					OFFSET -0.025372 -0.048144 0.123348
					CHANNELS 3 Zrotation Yrotation Xrotation
					End Site
					{
						OFFSET 0.000000 0.000000 0.000000
					}
				}
			}
		}
	}
	JOINT Spine
	{
		OFFSET -0.002533 0.108963 -0.026696
		CHANNELS 3 Zrotation Yrotation Xrotation
		JOINT Spine1
		{
			OFFSET 0.005487 0.135180 0.001092
			CHANNELS 3 Zrotation Yrotation Xrotation
			JOINT Spine2
			{
				OFFSET 0.001457 0.052922 0.025425
				CHANNELS 3 Zrotation Yrotation Xrotation
				JOINT Neck
				{
					OFFSET -0.002778 0.213870 -0.042857
					CHANNELS 3 Zrotation Yrotation Xrotation
					JOINT Head
					{
						OFFSET 0.005152 0.064970 0.051349
						CHANNELS 3 Zrotation Yrotation Xrotation
						End Site
						{
							OFFSET 0.000000 0.000000 0.000000
						}
					}
				}
				JOINT LeftShoulder
				{
					OFFSET 0.078845 0.121749 -0.034090
					CHANNELS 3 Zrotation Yrotation Xrotation
					JOINT LeftArm
					{
						OFFSET 0.090977 0.030469 -0.008868
						CHANNELS 3 Zrotation Yrotation Xrotation
						JOINT LeftForeArm
						{
							OFFSET 0.259612 -0.012772 -0.027456
							CHANNELS 3 Zrotation Yrotation Xrotation
							JOINT LeftHand
							{
								OFFSET 0.249234 0.008986 -0.001171
								CHANNELS 3 Zrotation Yrotation Xrotation
								End Site
								{
									OFFSET 0.000000 0.000000 0.000000
								}
							}
						}
					}
				}
				JOINT RightShoulder
				{
					OFFSET -0.081759 0.118833 -0.038615
					CHANNELS 3 Zrotation Yrotation Xrotation
					JOINT RightArm
					{
						OFFSET -0.096012 0.032551 -0.009143
						CHANNELS 3 Zrotation Yrotation Xrotation
						JOINT RightForeArm
						{
							OFFSET -0.253742 -0.013329 -0.021401
							CHANNELS 3 Zrotation Yrotation Xrotation
							JOINT RightHand
							{
								OFFSET -0.255298 0.007772 -0.005559
								CHANNELS 3 Zrotation Yrotation Xrotation
								End Site
								{
									OFFSET 0.000000 0.000000 0.000000
								}
							}
						}
					}
				}
			}
		}
	}
}
MOTION
Frames: 10
Frame Time: 0.050000
-0.001305 0.954611 -0.001463 0.188473 6.628039 4.978914 5.058500 -0.086145 2.766368 -4.667238 0.180399 -16.036084 0.281942 8.039755 19.390687 0.000000 0.000000 0.000000 -5.569668 0.004643 1.948346 6.237527 -0.643270 -11.588499 -6.833395 -17.169563 20.515984 0.000000 0.000000 0.000000 -1.896696 -0.148966 6.971892 8.670657 -1.506316 -22.551897 2.896475 5.945906 26.122140 1.557392 1.090986 -13.467798 0.000000 0.000000 0.000000 -17.542840 8.748061 -7.949921 -57.612525 -6.539628 -6.031285 -25.655652 -22.492680 5.739912 0.000000 0.000000 0.000000 5.096176 4.524762 2.275229 41.514976 38.927238 8.034803 -17.973761 26.572512 -2.087461 0.000000 0.000000 0.000000 
-0.002146 0.954382 -0.002920 0.393598 6.907706 5.093852 4.851252 -0.086175 2.526878 -4.589005 0.174659 -16.043259 0.129593 7.882307 19.433458 0.000000 0.000000 0.000000 -5.539238 0.013005 1.749237 5.911778 -0.641698 -11.527556 -7.040996 -17.454226 20.435932 0.000000 0.000000 0.000000 -1.618975 -0.186838 7.387034 8.784589 -1.542088 -22.427404 3.087841 6.109609 25.963956 2.181794 0.658904 -13.383846 0.000000 0.000000 0.000000 -17.553985 7.935128 -7.598764 -57.537517 -7.038419 -5.769367 -25.790175 -23.177245 5.924279 0.000000 0.000000 0.000000 5.252990 5.494615 2.725413 41.389112 40.054547 8.486673 -17.994420 23.322023 -1.810225 0.000000 0.000000 0.000000 
-0.003153 0.953934 -0.004138 0.631623 7.035951 5.178681 4.692465 -0.083177 2.390782 -4.654352 0.165691 -16.099573 0.050154 7.802108 19.470821 0.000000 0.000000 0.000000 -5.521165 0.025412 1.516885 5.540810 -0.634305 -11.350575 -7.196299 -17.677370 20.193326 0.000000 0.000000 0.000000 -1.498235 -0.212607 7.810861 8.919778 -1.598557 -22.166891 3.344812 6.365468 25.680108 2.476898 0.471823 -13.299909 0.000000 0.000000 0.000000 -17.397662 7.531521 -7.417118 -57.595426 -7.517303 -5.522546 -26.002403 -23.780691 6.098552 0.000000 0.000000 0.000000 5.382574 6.095147 3.020385 42.120013 40.915178 9.126390 -17.757251 21.599625 -1.612371 0.000000 0.000000 0.000000 
-0.004190 0.953500 -0.004973 0.644484 7.336084 5.154975 4.775897 -0.097458 2.254378 -4.685157 0.156407 -15.997657 -0.069186 7.648217 19.358185 0.000000 0.000000 0.000000 -5.191670 0.025377 1.294386 5.085623 -0.625174 -10.947800 -7.430080 -18.007109 19.952297 0.000000 0.000000 0.000000 -1.257441 -0.251369 8.185708 9.201095 -1.678990 -22.067488 3.543387 6.614673 25.481256 2.858373 0.284101 -13.581246 0.000000 0.000000 0.000000 -17.152025 7.053714 -7.190407 -57.688453 -8.136739 -5.230011 -26.032337 -23.961178 6.115335 0.000000 0.000000 0.000000 5.522088 6.512937 3.249478 42.853137 41.428235 9.641670 -17.359217 19.970443 -1.404577 0.000000 0.000000 0.000000 
-0.005295 0.953585 -0.005336 0.724393 7.384996 5.250071 4.797085 -0.108929 2.036104 -4.744723 0.155690 -15.849232 -0.094942 7.633089 19.402268 0.000000 0.000000 0.000000 -5.177546 0.038775 1.078250 5.033990 -0.622917 -10.777916 -7.488611 -18.090911 19.885830 0.000000 0.000000 0.000000 -1.077349 -0.271740 8.272720 9.233470 -1.704370 -21.872312 3.730115 6.842012 25.455665 3.067253 0.141592 -13.413240 0.000000 0.000000 0.000000 -16.767824 6.784012 -6.993458 -57.754838 -8.423845 -5.124449 -26.272788 -24.611342 6.318861 0.000000 0.000000 0.000000 5.851975 6.774205 3.435196 43.797860 41.299085 9.895722 -17.637366 19.525041 -1.378259 0.000000 0.000000 0.000000 
-0.006325 0.953805 -0.005168 0.765348 7.764379 5.228035 4.807482 -0.110737 2.109356 -4.682068 0.141461 -16.010369 -0.321576 7.412624 19.535799 0.000000 0.000000 0.000000 -4.999947 0.028934 1.085078 4.820467 -0.621740 -10.639811 -7.696733 -18.371787 19.933119 0.000000 0.000000 0.000000 -0.974488 -0.296678 8.566532 9.389713 -1.738017 -21.921306 3.829593 6.819836 25.395602 3.377346 -0.113580 -13.077344 0.000000 0.000000 0.000000 -16.377956 6.578000 -6.817871 -58.238000 -8.714465 -5.058551 -26.288167 -25.107604 6.439310 0.000000 0.000000 0.000000 6.043328 6.527835 3.379675 44.754304 41.009087 10.089068 -18.116877 19.616005 -1.412456 0.000000 0.000000 0.000000 
-0.007275 0.954224 -0.004614 0.610646 8.013889 5.292021 4.942509 -0.126716 2.027143 -4.477195 0.142784 -16.042803 -0.446526 7.300101 19.616946 0.000000 0.000000 0.000000 -4.805922 0.019647 1.127348 4.933995 -0.631649 -10.773480 -7.777781 -18.464194 20.164980 0.000000 0.000000 0.000000 -0.600881 -0.333351 8.520686 9.443196 -1.770254 -21.698330 3.904010 6.796744 25.235975 3.363436 -0.183673 -12.493020 0.000000 0.000000 0.000000 -16.197288 6.560515 -6.780902 -58.453624 -8.473628 -5.202460 -26.561423 -25.703478 6.649593 0.000000 0.000000 0.000000 6.425239 6.269755 3.339026 45.328206 40.431022 9.994417 -19.009362 20.157033 -1.541345 0.000000 0.000000 0.000000 
-0.008058 0.954047 -0.003909 0.774427 8.603264 5.482491 5.007526 -0.143066 1.946283 -4.738513 0.099759 -16.298152 -0.773609 6.967503 19.743183 0.000000 0.000000 0.000000 -4.818376 0.011518 1.184533 4.843537 -0.642096 -10.987182 -8.094846 -18.886660 20.272258 0.000000 0.000000 0.000000 -0.538940 -0.345803 8.596753 9.521897 -1.772244 -21.780588 3.992507 6.538302 25.298815 3.637402 -0.410280 -12.321275 0.000000 0.000000 0.000000 -15.938106 6.417003 -6.656169 -58.723309 -8.594575 -5.200593 -27.130692 -26.319709 6.942221 0.000000 0.000000 0.000000 6.605922 5.809875 3.182939 45.539067 40.351261 9.998822 -19.596160 20.525477 -1.618685 0.000000 0.000000 0.000000 
-0.008538 0.953846 -0.003522 0.886037 8.810187 5.541277 4.831769 -0.132502 1.995316 -4.563749 0.096386 -16.481010 -0.896032 6.842223 19.782744 0.000000 0.000000 0.000000 -4.974433 -0.004708 1.457605 5.011163 -0.657620 -11.461787 -8.164427 -18.973310 20.384515 0.000000 0.000000 0.000000 -0.265979 -0.379833 8.708180 9.358689 -1.725717 -21.757562 4.075969 6.527375 25.366281 3.581249 -0.386466 -12.125038 0.000000 0.000000 0.000000 -15.746452 6.296978 -6.564261 -59.209076 -8.514029 -5.318220 -27.599429 -26.643151 7.139266 0.000000 0.000000 0.000000 6.624810 5.728206 3.163838 45.090263 40.513020 9.912784 -20.318395 20.388409 -1.676557 0.000000 0.000000 0.000000 
-0.008770 0.953416 -0.003722 0.973788 9.150192 5.659589 4.836248 -0.152045 1.634197 -4.677754 0.086733 -16.164932 -1.015260 6.665170 19.579413 0.000000 0.000000 0.000000 -5.100312 -0.019249 1.686425 5.158015 -0.675639 -12.009657 -8.308605 -19.155336 20.529378 0.000000 0.000000 0.000000 -0.077557 -0.406819 8.812169 9.232392 -1.705286 -21.556688 4.187749 6.409584 25.344304 3.333241 -0.207535 -12.014667 0.000000 0.000000 0.000000 -15.756133 6.412114 -6.649012 -59.463646 -8.167907 -5.510313 -27.859812 -26.851943 7.249961 0.000000 0.000000 0.000000 6.006712 5.820561 3.117506 44.731348 41.264638 10.214347 -21.097323 19.884966 -1.705935 0.000000 0.000000 0.000000 
